<svg xmlns="http://www.w3.org/2000/svg" viewBox="0 0 22 21">
  <path fill="none" stroke="#0070e0" stroke-linecap="round" stroke-width="2.5" d="M1.26 1.21c1.16 0 2.33-.02 2.96.14.62.16.72.5.99 1.97.26 1.47.7 4.07 1.1 6.09.38 2.02.72 3.45 1.15 4.21.44.76.97.85 2.01.87 1.04.03 2.58 0 4.22 0 1.63-.01 3.36 0 4.33-.21.97-.22 1.18-.68 1.46-1.7.29-1.01.64-2.6.91-3.85.27-1.26.45-2.22.22-2.7s-.85-.5-2.22-.5l-5.43.04-4.92.02c-1.18.01-1.75.03-2.31.04"/>
  <circle cx="8.18" cy="18.99" r="2.04" fill="#0070e0" paint-order="stroke fill markers"/>
  <circle cx="18.25" cy="18.92" r="2.04" fill="#0070e0" paint-order="stroke fill markers"/>
</svg>
